<svg width="100" height="100" viewBox="0 0 100 100" fill="none" xmlns="http://www.w3.org/2000/svg">
<circle cx="50" cy="50" r="50" fill="#E6E6E6"/>
<path d="M23.6 30H57.2C58.1548 30 59.0705 30.3718 59.7456 31.0337C60.4207 31.6956 60.8 32.5933 60.8 33.5294V39.4116H70.4C70.9587 39.4129 71.5094 39.541 72.0091 39.786C72.5088 40.0309 72.9438 40.386 73.28 40.8234L79.76 49.2938C79.9029 49.5039 79.9858 49.7476 80 49.9997V62.9407C80 63.8768 79.6207 64.7745 78.9456 65.4363C78.2705 66.0982 77.3548 66.4701 76.4 66.4701H74.6912C74.226 67.5188 73.4585 68.4114 72.483 69.0384C71.5075 69.6654 70.3665 69.9994 69.2 69.9994C68.0335 69.9994 66.8925 69.6654 65.917 69.0384C64.9415 68.4114 64.174 67.5188 63.7088 66.4701H45.8912C45.4742 67.4158 44.81 68.2368 43.9656 68.8501C43.1213 69.4634 42.1267 69.8473 41.0825 69.963C40.0382 70.0787 38.9814 69.922 38.0187 69.5089C37.056 69.0957 36.2217 68.4407 35.6 67.6101C34.9783 68.4407 34.144 69.0957 33.1813 69.5089C32.2186 69.922 31.1618 70.0787 30.1175 69.963C29.0733 69.8473 28.0787 69.4634 27.2344 68.8501C26.39 68.2368 25.7258 67.4158 25.3088 66.4701H23.6C22.6452 66.4701 21.7295 66.0982 21.0544 65.4363C20.3793 64.7745 20 63.8768 20 62.9407V33.5294C20 32.5933 20.3793 31.6956 21.0544 31.0337C21.7295 30.3718 22.6452 30 23.6 30V30ZM58.4 33.5294C58.4 33.2173 58.2736 32.9181 58.0485 32.6975C57.8235 32.4769 57.5183 32.3529 57.2 32.3529H23.6C23.2817 32.3529 22.9765 32.4769 22.7515 32.6975C22.5264 32.9181 22.4 33.2173 22.4 33.5294V58.2349H58.4V33.5294ZM77.6 58.2349V51.1562L60.8 50.8644V58.2349H77.6ZM71.36 42.2351C71.2482 42.089 71.1033 41.9704 70.9367 41.8887C70.77 41.8071 70.5863 41.7645 70.4 41.7645H60.8V48.5103L76.3676 48.7809L71.36 42.2351ZM76.4 64.1172C76.7183 64.1172 77.0235 63.9932 77.2485 63.7726C77.4736 63.552 77.6 63.2527 77.6 62.9407V60.5878H73.9688C74.763 61.6 75.1956 62.8402 75.2 64.1172H76.4ZM69.2 67.6465C69.912 67.6465 70.608 67.4395 71.2001 67.0517C71.7921 66.6639 72.2535 66.1127 72.526 65.4678C72.7984 64.8229 72.8697 64.1132 72.7308 63.4286C72.5919 62.744 72.2491 62.1151 71.7456 61.6215C71.2421 61.1279 70.6007 60.7918 69.9023 60.6556C69.204 60.5194 68.4802 60.5893 67.8223 60.8565C67.1645 61.1236 66.6023 61.576 66.2067 62.1564C65.8111 62.7368 65.6 63.4191 65.6 64.1172C65.6 65.0532 65.9793 65.9509 66.6544 66.6128C67.3295 67.2747 68.2452 67.6465 69.2 67.6465ZM63.2 64.1172C63.2044 62.8402 63.637 61.6 64.4312 60.5878H45.1688C45.963 61.6 46.3956 62.8402 46.4 64.1172H63.2ZM40.4 67.6465C41.112 67.6465 41.808 67.4395 42.4001 67.0517C42.9921 66.6639 43.4535 66.1127 43.726 65.4678C43.9984 64.8229 44.0697 64.1132 43.9308 63.4286C43.7919 62.744 43.4491 62.1151 42.9456 61.6215C42.4421 61.1279 41.8007 60.7918 41.1023 60.6556C40.404 60.5194 39.6802 60.5893 39.0223 60.8565C38.3645 61.1236 37.8023 61.576 37.4067 62.1564C37.0111 62.7368 36.8 63.4191 36.8 64.1172C36.8 65.0532 37.1793 65.9509 37.8544 66.6128C38.5295 67.2747 39.4452 67.6465 40.4 67.6465ZM30.8 67.6465C31.512 67.6465 32.208 67.4395 32.8001 67.0517C33.3921 66.6639 33.8535 66.1127 34.126 65.4678C34.3984 64.8229 34.4697 64.1132 34.3308 63.4286C34.1919 62.744 33.849 62.1151 33.3456 61.6215C32.8421 61.1279 32.2007 60.7918 31.5023 60.6556C30.804 60.5194 30.0802 60.5893 29.4223 60.8565C28.7645 61.1236 28.2023 61.576 27.8067 62.1564C27.4111 62.7368 27.2 63.4191 27.2 64.1172C27.2 65.0532 27.5793 65.9509 28.2544 66.6128C28.9295 67.2747 29.8452 67.6465 30.8 67.6465ZM22.4 62.9407C22.4 63.2527 22.5264 63.552 22.7515 63.7726C22.9765 63.9932 23.2817 64.1172 23.6 64.1172H24.8C24.8044 62.8402 25.237 61.6 26.0312 60.5878H22.4V62.9407Z" fill="black"/>
</svg>
